# File created by Blade
# Date/Time:  Tue Sep 30 19:09:21 2014
#---------------------------------------------------------
:version 1.10
:name HOM
:units
  mass 1.0
  length 1.000000
  angle deg
:documentation
     Acclaim Skeleton File
:root
   axis xyz
   order TX TY TZ RX RY RZ
   position 0.000000 0.000000 0.000000
   orientation 0 0 0
:bonedata
   begin
      id 1
      name Spine_dum
      direction 0.000000 1.000000 0.000000
      length 7.508948
      axis 0.0 0.0 0.0 xyz
   end
   begin
      id 2
      name LeftUpLeg_dum
      direction 1.000000 0.000000 0.000000
      length 3.000560
      axis 0.0 0.0 0.0 xyz
   end
   begin
      id 3
      name RightUpLeg_dum
      direction -1.000000 0.000000 0.000000
      length 3.000560
      axis 0.0 0.0 0.0 xyz
   end
   begin
      id 4
      name Spine
      direction 0.000000 1.000000 0.000000
      length 0.000000
      axis 0.0 0.0 0.0 xyz
      dof rx ry rz
   end
   begin
      id 5
      name Spine_dum1
      direction 0.000000 1.000000 0.000000
      length 13.861154
      axis 0.0 0.0 0.0 xyz
   end
   begin
      id 6
      name Spine_dum2
      direction 0.000000 1.000000 0.000000
      length 8.204781
      axis 0.0 0.0 0.0 xyz
   end
   begin
      id 7
      name Spine_dum3
      direction 0.000000 1.000000 0.000000
      length 8.204781
      axis 0.0 0.0 0.0 xyz
   end
   begin
      id 8
      name Head
      direction 0.000000 1.000000 0.000000
      length 4.527550
      axis 0.0 0.0 0.0 xyz
      dof rx ry rz
   end
   begin
      id 9
      name LeftShoulder
      direction 1.000000 0.000000 0.000000
      length 6.635956
      axis 0.0 0.0 -90.0 xyz
      dof rx ry rz
   end
   begin
      id 10
      name LeftArm
      direction 1.000000 0.000000 0.000000
      length 10.274218
      axis 0.0 0.0 -90.0 xyz
      dof rx ry rz
   end
   begin
      id 11
      name LeftForeArm
      direction 1.000000 0.000000 0.000000
      length 8.522147
      axis 0.0 0.0 -90.0 xyz
      dof ry rz rx
   end
   begin
      id 12
      name LeftHand
      direction 0.000000 0.000000 0.000000
      length 0.000000
      axis 0.0 0.0 -90.0 xyz
      dof rx ry rz
   end
   begin
      id 13
      name LeftHand_dum1
      direction 0.000000 0.000000 0.000000
      length 0.000000
      axis 0.0 0.0 -90.0 xyz
   end
   begin
      id 14
      name LeftHand_dum2
      direction 1.000000 0.000000 0.000000
      length 3.937000
      axis 0.0 0.0 -90.0 xyz
   end
   begin
      id 15
      name LeftHandThumb1
      direction 0.000000 0.000000 1.000000
      length 3.937000
      axis 0.0 0.0 -90.0 xyz
      dof rx rz ry
   end
   begin
      id 16
      name RightShoulder
      direction -1.000000 0.000000 0.000000
      length 6.635956
      axis 0.0 0.0 90.0 xyz
      dof rx ry rz
   end
   begin
      id 17
      name RightArm
      direction -1.000000 0.000000 0.000000
      length 10.274218
      axis 0.0 0.0 90.0 xyz
      dof rx ry rz
   end
   begin
      id 18
      name RightForeArm
      direction -1.000000 0.000000 0.000000
      length 8.522147
      axis 0.0 0.0 90.0 xyz
      dof ry rz rx
   end
   begin
      id 19
      name RightHand
      direction 0.000000 0.000000 0.000000
      length 0.000000
      axis 0.0 0.0 90.0 xyz
      dof rx ry rz
   end
   begin
      id 20
      name RightHand_dum1
      direction 0.000000 0.000000 0.000000
      length 0.000000
      axis 0.0 0.0 90.0 xyz
   end
   begin
      id 21
      name RightHand_dum2
      direction -1.000000 0.000000 0.000000
      length 3.937000
      axis 0.0 0.0 90.0 xyz
   end
   begin
      id 22
      name RightHandThumb1
      direction 0.000000 0.000000 1.000000
      length 3.937000
      axis 0.0 0.0 90.0 xyz
      dof rx rz ry
   end
   begin
      id 23
      name LeftUpLeg
      direction 0.000000 -1.000000 0.000000
      length 16.490845
      axis 0.0 0.0 0.0 xyz
      dof rx ry rz
   end
   begin
      id 24
      name LeftLeg
      direction 0.000000 -1.000000 0.000000
      length 14.556576
      axis 0.0 0.0 0.0 xyz
      dof rx ry rz
   end
   begin
      id 25
      name LeftFoot
      direction 0.000000 -0.258819 0.965926
      length 4.831116
      axis 15.0 0.0 0.0 xyz
      dof rx ry rz
   end
   begin
      id 26
      name LeftToeBase
      direction 0.000000 0.000000 1.000000
      length 2.952750
      axis 0.0 0.0 0.0 xyz
      dof rx ry rz
   end
   begin
      id 27
      name RightUpLeg
      direction 0.000000 -1.000000 0.000000
      length 16.490845
      axis 0.0 0.0 0.0 xyz
      dof rx ry rz
   end
   begin
      id 28
      name RightLeg
      direction 0.000000 -1.000000 0.000000
      length 14.556576
      axis 0.0 0.0 0.0 xyz
      dof rx ry rz
   end
   begin
      id 29
      name RightFoot
      direction 0.000000 -0.258819 0.965926
      length 4.831116
      axis 15.0 0.0 0.0 xyz
      dof rx ry rz
   end
   begin
      id 30
      name RightToeBase
      direction 0.000000 0.000000 1.000000
      length 2.952750
      axis 0.0 0.0 0.0 xyz
      dof rx ry rz
   end
:hierarchy
   begin
      root Spine_dum LeftUpLeg_dum RightUpLeg_dum
      Spine_dum Spine
      LeftUpLeg_dum LeftUpLeg
      RightUpLeg_dum RightUpLeg
      Spine Spine_dum1 Spine_dum2 Spine_dum3
      Spine_dum1 Head
      Spine_dum2 LeftShoulder
      Spine_dum3 RightShoulder
      LeftShoulder LeftArm
      LeftArm LeftForeArm
      LeftForeArm LeftHand
      LeftHand LeftHand_dum1 LeftHand_dum2
      LeftHand_dum1 LeftHandThumb1
      RightShoulder RightArm
      RightArm RightForeArm
      RightForeArm RightHand
      RightHand RightHand_dum1 RightHand_dum2
      RightHand_dum1 RightHandThumb1
      LeftUpLeg LeftLeg
      LeftLeg LeftFoot
      LeftFoot LeftToeBase
      RightUpLeg RightLeg
      RightLeg RightFoot
      RightFoot RightToeBase
   end

# File created by Blade
# Date/Time:  Wed Sep 24 19:53:44 2014
# Frame Rate: 120.000 fps
#------------------------------------------------------
:FULLY-SPECIFIED
:DEGREES
1
root -6.560862 32.881740 -4.650226 9.065426 6.216798 -0.833754
Spine -10.900313 1.507015 -0.114206
Head -8.860462 -1.732610 9.285366
LeftShoulder -13.985032 17.234645 26.006992
LeftArm 19.564814 -28.038619 -35.685362
LeftForeArm 15.106956 0.000000 14.948554
LeftHand -30.878280 -0.000000 -4.372975
LeftHandThumb1 -26.253704 0.000000 33.147579
RightShoulder -20.373176 14.713132 -37.563242
RightArm -5.719343 3.662873 29.937387
RightForeArm -31.171905 0.000000 16.791351
RightHand -12.395655 -0.000000 13.058064
RightHandThumb1 -24.326973 -0.000000 -32.862282
LeftUpLeg -4.419119 4.634814 5.385830
LeftLeg -1.770524 -0.000000 0.000000
LeftFoot -8.469100 4.432318 -17.259877
LeftToeBase 11.619569 -0.000000 -0.000000
RightUpLeg -4.962732 -9.924281 -1.751965
RightLeg 2.238929 -0.000000 -0.000000
RightFoot -7.342385 -6.173147 -14.005807
RightToeBase -0.400353 -0.000000 0.000000
2
root -6.558862 32.881422 -4.649622 9.067259 6.208868 -0.830592
Spine -10.907987 1.507065 -0.104639
Head -8.850187 -1.731979 9.284719
LeftShoulder -13.976811 17.240111 26.013314
LeftArm 19.606499 -28.085326 -35.712652
LeftForeArm 15.188929 -0.000000 14.959599
LeftHand -30.881036 -0.000000 -4.329580
LeftHandThumb1 -26.253704 0.000000 33.147579
RightShoulder -20.378068 14.727775 -37.563671
RightArm -5.716494 3.620408 29.933345
RightForeArm -31.179775 -0.000000 16.812184
RightHand -12.411133 -0.000000 13.066417
RightHandThumb1 -24.326973 -0.000000 -32.862282
LeftUpLeg -4.417408 4.639518 5.378996
LeftLeg -1.774854 -0.000000 0.000000
LeftFoot -8.449212 4.397613 -17.329776
LeftToeBase 11.489326 -0.000000 -0.000000
RightUpLeg -4.951724 -9.922372 -1.757867
RightLeg 2.210863 -0.000000 -0.000000
RightFoot -7.313606 -6.187894 -14.057701
RightToeBase -0.447300 -0.000000 0.000000
3
root -6.557969 32.880873 -4.649903 9.069924 6.195732 -0.822126
Spine -10.901703 1.494680 -0.107837
Head -8.874939 -1.720530 9.302691
LeftShoulder -13.982031 17.194391 26.013081
LeftArm 19.615834 -28.074238 -35.676498
LeftForeArm 15.247331 0.000000 14.920444
LeftHand -30.859932 0.000000 -4.233891
LeftHandThumb1 -26.253704 0.000000 33.147579
RightShoulder -20.392937 14.728716 -37.539307
RightArm -5.671294 3.597132 29.926626
RightForeArm -31.192138 -0.000000 16.811723
RightHand -12.397042 -0.000000 13.054395
RightHandThumb1 -24.326973 -0.000000 -32.862282
LeftUpLeg -4.417342 4.646928 5.366872
LeftLeg -1.771907 -0.000000 0.000000
LeftFoot -8.479797 4.422164 -17.275271
LeftToeBase 11.599767 -0.000000 -0.000000
RightUpLeg -4.959091 -9.893031 -1.770992
RightLeg 2.220438 -0.000000 -0.000000
RightFoot -7.334680 -6.201586 -14.033180
RightToeBase -0.402924 -0.000000 0.000000
4
root -6.556462 32.880866 -4.648599 9.067867 6.186573 -0.819955
Spine -10.906835 1.486914 -0.088335
Head -8.857769 -1.717787 9.281761
LeftShoulder -13.968152 17.198851 26.019264
LeftArm 19.624702 -28.244707 -35.758685
LeftForeArm 15.332522 -0.000000 15.032299
LeftHand -30.950185 -0.000000 -4.335266
LeftHandThumb1 -26.253704 0.000000 33.147579
RightShoulder -20.382530 14.754327 -37.544149
RightArm -5.687346 3.573387 29.916339
RightForeArm -31.227065 0.000000 16.851008
RightHand -12.424357 -0.000000 13.071731
RightHandThumb1 -24.326973 -0.000000 -32.862282
LeftUpLeg -4.407781 4.629018 5.364337
LeftLeg -1.782062 -0.000000 0.000000
LeftFoot -8.463244 4.417323 -17.365436
LeftToeBase 11.512327 -0.000000 -0.000000
RightUpLeg -4.948910 -9.894387 -1.775763
RightLeg 2.205690 -0.000000 -0.000000
RightFoot -7.331246 -6.189258 -14.033935
RightToeBase -0.374111 -0.000000 0.000000
5
root -6.555137 32.880740 -4.647799 9.067265 6.173446 -0.815108
Spine -10.911188 1.482485 -0.081117
Head -8.844515 -1.711891 9.277815
LeftShoulder -13.944243 17.148624 26.050206
LeftArm 19.582686 -28.252269 -35.758558
LeftForeArm 15.312341 0.000000 15.080127
LeftHand -31.078351 -0.000000 -4.439152
LeftHandThumb1 -26.253704 0.000000 33.147579
RightShoulder -20.381105 14.767821 -37.570821
RightArm -5.718547 3.568909 29.948636
RightForeArm -31.296931 -0.000000 16.904691
RightHand -12.418105 -0.000000 13.048818
RightHandThumb1 -24.326973 -0.000000 -32.862282
LeftUpLeg -4.402265 4.634696 5.356739
LeftLeg -1.778308 -0.000000 0.000000
LeftFoot -8.478465 4.447541 -17.296564
LeftToeBase 11.514423 -0.000000 -0.000000
RightUpLeg -4.941344 -9.880072 -1.784024
RightLeg 2.192309 -0.000000 -0.000000
RightFoot -7.322094 -6.208474 -14.062739
RightToeBase -0.373900 -0.000000 0.000000
